<?xml version="1.0" encoding="UTF-8" standalone="no"?>
<svg id="svg3073" xmlns="http://www.w3.org/2000/svg" height="16" width="16" xmlns:cc="http://creativecommons.org/ns#" xmlns:dc="http://purl.org/dc/elements/1.1/">
 <circle id="circle3075" stroke="#a97038" cy="8" cx="8" r="7.5" fill="#c96"/>
 <g id="g3106">
  <path id="path3090" style="fill:#000000;" d="M5.0937,9.7863,6.5546,9.6091c0.046547,0.3724,0.17187,0.65706,0.37598,0.854,0.2041,0.19694,0.45117,0.29541,0.74121,0.29541,0.31152,0.000001,0.57381-0.11816,0.78687-0.35449,0.213-0.236,0.3195-0.555,0.3195-0.956,0-0.3796-0.102-0.6804-0.3061-0.9024s-0.453-0.333-0.7466-0.333c-0.1934,0-0.4243,0.0376-0.6929,0.1128l0.1665-1.23c0.4082,0.0108,0.7197-0.0779,0.9346-0.2659,0.2148-0.1879,0.3223-0.4377,0.3223-0.7492,0-0.265-0.0788-0.4763-0.2364-0.6338-0.1575-0.1576-0.367-0.2363-0.6284-0.2363-0.2578,0-0.478,0.0895-0.6606,0.2685-0.1827,0.1791-0.2937,0.4404-0.333,0.7842l-1.3912-0.2363c0.0967-0.4763,0.2426-0.8567,0.4378-1.1414,0.1951-0.2847,0.4673-0.5084,0.8164-0.6714,0.3491-0.1629,0.7403-0.2444,1.1736-0.2444,0.74121,0.000008,1.3356,0.23634,1.7832,0.70898,0.36881,0.38673,0.55322,0.82357,0.55322,1.3105-0.000005,0.69109-0.37777,1.2425-1.1333,1.6543,0.45117,0.096684,0.81193,0.31332,1.0823,0.6499,0.27034,0.33659,0.40551,0.743,0.40552,1.2192-0.000005,0.69108-0.25245,1.2801-0.75732,1.7671-0.50489,0.48698-1.1333,0.73047-1.8853,0.73047-0.71257,0-1.3034-0.205-1.7725-0.61499-0.4689-0.409-0.7411-0.945-0.8162-1.6077z"/>
  <path id="path3092" style="fill:#000000;" d="m11.435,11.876,0-1.5093,1.5093,0,0,1.5093z"/>
 </g>
</svg>
