<?xml version="1.0" ?><svg enable-background="new 0 0 64 64" id="Filled_Outline_00000081607312705973271110000009714898175699931553_" version="1.1" viewBox="0 0 64 64" xml:space="preserve" xmlns="http://www.w3.org/2000/svg" xmlns:xlink="http://www.w3.org/1999/xlink"><g><g><path d="M41,17h-0.1c-2.705-1.27-5.714-2-8.9-2s-6.195,0.73-8.9,2H23C10.85,17,1,26.85,1,39v0    c0,12.15,9.85,22,22,22h0.1c2.705,1.27,5.714,2,8.9,2s6.195-0.73,8.9-2H41c12.15,0,22-9.85,22-22v0C63,26.85,53.15,17,41,17z" fill="#FF6D1F"/><path d="M21,4L21,4c0,1.657,1.343,3,3,3h0c2.761,0,5,2.239,5,5v3h6v-3c0-6.075-4.925-11-11-11h0    C22.343,1,21,2.343,21,4z" fill="#A69D24"/><path d="M25,29l4,2l-4,2l-2,4l-2-4l-4-2l4-2l2-4L25,29z M41,25l-2,4l-4,2l4,2l2,4l2-4l4-2l-4-2L41,25z" fill="#F2D95C"/><ellipse cx="32" cy="50" fill="#732002" rx="5" ry="7"/></g><g><path d="M30,31c0-0.379-0.214-0.725-0.553-0.895l-3.702-1.851l-1.851-3.702c-0.34-0.678-1.449-0.678-1.789,0    l-1.851,3.702l-3.702,1.851C16.214,30.275,16,30.621,16,31s0.214,0.725,0.553,0.895l3.702,1.851l1.851,3.702    C22.275,37.786,22.621,38,23,38s0.725-0.214,0.895-0.553l1.851-3.702l3.702-1.851C29.786,31.725,30,31.379,30,31z M24.553,32.105    c-0.193,0.097-0.351,0.254-0.447,0.447L23,34.764l-1.105-2.211c-0.097-0.193-0.254-0.351-0.447-0.447L19.236,31l2.211-1.105    c0.193-0.097,0.351-0.254,0.447-0.447L23,27.236l1.105,2.211c0.097,0.193,0.254,0.351,0.447,0.447L26.764,31L24.553,32.105z" fill="#260A04"/><path d="M47.447,30.105l-3.702-1.851l-1.851-3.702c-0.34-0.678-1.449-0.678-1.789,0l-1.851,3.702l-3.702,1.851    C34.214,30.275,34,30.621,34,31s0.214,0.725,0.553,0.895l3.702,1.851l1.851,3.702C40.275,37.786,40.621,38,41,38    s0.725-0.214,0.895-0.553l1.851-3.702l3.702-1.851C47.786,31.725,48,31.379,48,31S47.786,30.275,47.447,30.105z M42.553,32.105    c-0.193,0.097-0.351,0.254-0.447,0.447L41,34.764l-1.105-2.211c-0.097-0.193-0.254-0.351-0.447-0.447L37.236,31l2.211-1.105    c0.193-0.097,0.351-0.254,0.447-0.447L41,27.236l1.105,2.211c0.097,0.193,0.254,0.351,0.447,0.447L44.764,31L42.553,32.105z" fill="#260A04"/><path d="M32,42c-3.309,0-6,3.589-6,8s2.691,8,6,8s6-3.589,6-8S35.309,42,32,42z M32,56c-2.168,0-4-2.748-4-6    s1.832-6,4-6s4,2.748,4,6S34.168,56,32,56z" fill="#260A04"/><path d="M64,39c0-12.63-10.233-22.911-22.843-22.996c-1.623-0.746-3.351-1.3-5.157-1.633V12    c0-6.617-5.383-12-12-12c-2.206,0-4,1.794-4,4s1.794,4,4,4s4,1.794,4,4v2.371c-1.805,0.333-3.534,0.887-5.157,1.633    C10.233,16.089,0,26.37,0,39s10.233,22.911,22.843,22.996C25.633,63.279,28.733,64,32,64s6.367-0.721,9.157-2.004    C53.767,61.911,64,51.63,64,39z M24,6c-1.103,0-2-0.897-2-2s0.897-2,2-2c5.514,0,10,4.486,10,10v2.095    C33.341,14.035,32.675,14,32,14s-1.341,0.035-2,0.095V12C30,8.691,27.309,6,24,6z M45.218,59.574C50.547,55.555,54,49.174,54,42    h-2c0,11.028-8.972,20-20,20s-20-8.972-20-20h-2c0,7.174,3.453,13.555,8.782,17.574C9.218,57.616,2,49.135,2,39    s7.218-18.616,16.782-20.574C13.453,22.445,10,28.826,10,36h2c0-11.028,8.972-20,20-20s20,8.972,20,20h2    c0-7.174-3.453-13.555-8.782-17.574C54.782,20.384,62,28.865,62,39S54.782,57.616,45.218,59.574z" fill="#260A04"/></g></g></svg>