<?xml version="1.0" ?><!DOCTYPE svg  PUBLIC '-//W3C//DTD SVG 1.1//EN'  'http://www.w3.org/Graphics/SVG/1.1/DTD/svg11.dtd'><svg enable-background="new 0 0 75 75" height="75px" version="1.1" viewBox="0 0 75 75" width="75px" xml:space="preserve" xmlns="http://www.w3.org/2000/svg" xmlns:xlink="http://www.w3.org/1999/xlink"><g id="Layer_1"><g><g><g><g><path d="M59.188,45.01c0,2.031-1.648,3.68-3.681,3.68l0,0c-2.033,0-3.681-1.648-3.681-3.68v-4.406       c0-2.033,1.647-3.682,3.681-3.682l0,0c2.032,0,3.681,1.648,3.681,3.682V45.01z" fill="#F2D1C9"/></g><g><path d="M55.507,49.439c-2.443,0-4.431-1.987-4.431-4.43v-4.406c0-2.444,1.988-4.432,4.431-4.432       s4.431,1.988,4.431,4.432v4.406C59.938,47.452,57.95,49.439,55.507,49.439z M55.507,37.672c-1.616,0-2.931,1.315-2.931,2.932       v4.406c0,1.615,1.314,2.93,2.931,2.93s2.931-1.314,2.931-2.93v-4.406C58.438,38.987,57.123,37.672,55.507,37.672z" fill="#093260"/></g></g><g><g><path d="M18.146,45.01c0,2.031-1.647,3.68-3.68,3.68l0,0c-2.033,0-3.682-1.648-3.682-3.68v-4.406       c0-2.033,1.648-3.682,3.682-3.682l0,0c2.032,0,3.68,1.648,3.68,3.682V45.01z" fill="#F2D1C9"/></g><g><path d="M14.467,49.439c-2.444,0-4.432-1.987-4.432-4.43v-4.406c0-2.444,1.988-4.432,4.432-4.432       c2.442,0,4.43,1.988,4.43,4.432v4.406C18.896,47.452,16.909,49.439,14.467,49.439z M14.467,37.672       c-1.617,0-2.932,1.315-2.932,2.932v4.406c0,1.615,1.315,2.93,2.932,2.93c1.615,0,2.93-1.314,2.93-2.93v-4.406       C17.396,38.987,16.082,37.672,14.467,37.672z" fill="#093260"/></g></g></g><g><path d="M14.262,30.215V50.51c0,10.068,8.165,18.234,18.235,18.234h4.979c10.07,0,18.235-8.166,18.235-18.234     V30.215H14.262z" fill="#F0FAFF"/></g><g><path d="M14.262,45.369c0,10.07,8.165,18.236,18.235,18.236h4.979c10.07,0,18.235-8.166,18.235-18.236V30.215     H14.262V45.369z" fill="#D9F1FF"/></g><g><path d="M34.988,28.797c-11.398,0-20.639,3.086-20.639,6.889v4.508c0-3.803,9.24-6.889,20.639-6.889     c11.396,0,20.635,3.086,20.635,6.889v-4.508C55.623,31.883,46.384,28.797,34.988,28.797z" fill="#AEDCFF"/></g><g><path d="M38.894,42.283H31.08c-1.168,0-2.267,0.291-3.232,0.799c0.14,1.854,1.669,3.316,3.557,3.316h7.166     c1.886,0,3.416-1.463,3.555-3.316C41.159,42.574,40.061,42.283,38.894,42.283z" fill="#AEDCFF"/></g><g><path d="M19.809,30.215v14.863c0,3.887,1.674,7.377,4.325,9.816v-5.666c0-3.836,3.109-6.945,6.946-6.945h7.813     c3.835,0,6.946,3.109,6.946,6.945v5.666c2.651-2.441,4.324-5.93,4.324-9.816V30.215H19.809z" fill="#F2D1C9"/></g><g><path d="M19.809,31.029v4.508c3.772-1.369,9.167-2.232,15.18-2.232c6.01,0,11.404,0.863,15.176,2.232v-4.508     c-0.818-0.297-1.71-0.568-2.671-0.814H22.48C21.52,30.461,20.627,30.732,19.809,31.029z" fill="#E8B6AC"/></g><g><path d="M45.84,55.645c-0.102,0-0.205-0.021-0.301-0.063c-0.272-0.12-0.449-0.389-0.449-0.687v-5.666     c0-3.416-2.78-6.195-6.196-6.195H31.08c-3.417,0-6.196,2.779-6.196,6.195v5.666c0,0.298-0.176,0.567-0.449,0.687     c-0.271,0.119-0.59,0.067-0.809-0.135c-2.903-2.67-4.567-6.45-4.567-10.368V30.215c0-0.414,0.336-0.75,0.75-0.75h30.355     c0.414,0,0.75,0.336,0.75,0.75v14.863c0,3.917-1.665,7.696-4.566,10.368C46.207,55.576,46.024,55.645,45.84,55.645z      M20.559,30.965v14.113c0,2.888,1.013,5.692,2.825,7.926v-3.775c0-4.243,3.453-7.695,7.696-7.695h7.813     c4.244,0,7.696,3.452,7.696,7.695v3.774c1.812-2.234,2.824-5.038,2.824-7.925V30.965H20.559z" fill="#093260"/></g><g><path d="M45.84,59.812c-0.414,0-0.75-0.336-0.75-0.75v-5.668c0-0.414,0.336-0.75,0.75-0.75s0.75,0.336,0.75,0.75     v5.668C46.59,59.477,46.254,59.812,45.84,59.812z" fill="#093260"/></g><g><path d="M24.134,59.812c-0.414,0-0.75-0.336-0.75-0.75v-5.668c0-0.414,0.336-0.75,0.75-0.75s0.75,0.336,0.75,0.75     v5.668C24.884,59.477,24.548,59.812,24.134,59.812z" fill="#093260"/></g><g><path d="M37.476,69.494h-4.979c-10.469,0-18.985-8.517-18.985-18.984V30.215c0-0.414,0.336-0.75,0.75-0.75h41.449     c0.414,0,0.75,0.336,0.75,0.75V50.51C56.461,60.978,47.944,69.494,37.476,69.494z M15.012,30.965V50.51     c0,9.641,7.844,17.484,17.485,17.484h4.979c9.642,0,17.485-7.843,17.485-17.484V30.965H15.012z" fill="#093260"/></g><g><g><g><path d="M34.988,23.508c-11.398,0-20.639,3.086-20.639,6.889v6.525h0.027c0.293-3.719,9.396-6.707,20.611-6.707       c11.211,0,20.314,2.988,20.607,6.707h0.027v-6.525C55.623,26.594,46.384,23.508,34.988,23.508z" fill="#F7F5DC"/></g><g><path d="M34.988,25.707c-11.398,0-20.639,3.086-20.639,6.889v4.508c0-3.803,9.24-6.889,20.639-6.889       c11.396,0,20.635,3.086,20.635,6.889v-4.508C55.623,28.793,46.384,25.707,34.988,25.707z" fill="#EAE8C3"/></g><g><g><path d="M34.988,23.508c8.392,0,15.602,1.68,18.83,4.078c-0.445-1.604-0.688-3.271-0.688-5        c0-3.219,0.828-6.25,2.26-8.963c-4.115-4.498-10.289-7.367-17.197-7.367c-12.395,0-22.438,9.207-22.438,20.568        c0,0.344,0.037,0.691,0.055,1.041C18.844,25.314,26.27,23.508,34.988,23.508z" fill="#E83862"/></g></g><g><path d="M38.193,10.246c-11.246,0-20.555,7.576-22.184,17.469c3.142-2.471,10.434-4.207,18.979-4.207       c7.855,0,14.674,1.473,18.16,3.629c-0.005-0.189-0.018-0.373-0.018-0.562c0-0.682,0.045-1.352,0.117-2.012       c-0.07-0.65-0.117-1.309-0.117-1.977c0-2.158,0.379-4.229,1.056-6.18C50.117,12.609,44.461,10.246,38.193,10.246z" fill="#BC2A54"/></g><g><path d="M21.711,25.137c3.584-1.014,8.205-1.629,13.277-1.629c7.855,0,14.674,1.473,18.16,3.629       c-0.005-0.189-0.018-0.373-0.018-0.562c0-0.682,0.045-1.352,0.117-2.012c-0.028-0.256-0.049-0.514-0.068-0.771       c-3.973-3.279-9.219-5.287-14.986-5.287C31.67,18.504,25.811,21.064,21.711,25.137z" fill="#AA1F4D"/></g><g><path d="M54.659,16.186c0,2.633,2.142,4.773,4.78,4.773c2.638,0,4.775-2.141,4.775-4.773       c0-2.643-2.138-4.785-4.775-4.785C56.801,11.4,54.659,13.543,54.659,16.186z" fill="#F7F5DC"/></g><g><path d="M55.459,13.535c-0.504,0.76-0.8,1.668-0.8,2.65c0,1.395,0.604,2.646,1.561,3.521       c0.505-0.758,0.8-1.666,0.8-2.643C57.02,15.664,56.416,14.41,55.459,13.535z" fill="#EAE8C3"/></g></g><g><g><g><path d="M55.623,37.855c-0.414,0-0.75-0.336-0.75-0.75c0-2.902-8.167-6.137-19.885-6.137        c-11.721,0-19.889,3.234-19.889,6.137c0,0.414-0.336,0.75-0.75,0.75s-0.75-0.336-0.75-0.75c0-3.702,7.496-7.637,21.389-7.637        c13.89,0,21.385,3.935,21.385,7.637C56.373,37.52,56.037,37.855,55.623,37.855z" fill="#093260"/></g></g><g><g><path d="M55.623,37.855c-0.414,0-0.75-0.336-0.75-0.75c0-2.902-8.167-6.137-19.885-6.137        c-11.721,0-19.889,3.234-19.889,6.137c0,0.414-0.336,0.75-0.75,0.75s-0.75-0.336-0.75-0.75c0-3.702,7.496-7.637,21.389-7.637        c13.89,0,21.385,3.935,21.385,7.637C56.373,37.52,56.037,37.855,55.623,37.855z" fill="#093260"/></g></g><g><path d="M55.623,37.672c-0.414,0-0.75-0.336-0.75-0.75v-6.525c0-2.903-8.167-6.139-19.885-6.139       c-11.721,0-19.889,3.235-19.889,6.139v6.525c0,0.414-0.336,0.75-0.75,0.75s-0.75-0.336-0.75-0.75v-6.525       c0-3.703,7.496-7.639,21.389-7.639c13.89,0,21.385,3.936,21.385,7.639v6.525C56.373,37.336,56.037,37.672,55.623,37.672z" fill="#093260"/></g><g><g><path d="M15.811,28.615c-0.102,0-0.203-0.021-0.299-0.062c-0.261-0.114-0.436-0.365-0.45-0.65l-0.022-0.35        c-0.017-0.245-0.033-0.488-0.033-0.729c0-11.755,10.402-21.318,23.188-21.318c6.855,0,13.325,2.774,17.75,7.611        c0.214,0.234,0.258,0.576,0.11,0.856c-1.442,2.732-2.173,5.63-2.173,8.613c0,1.555,0.208,3.116,0.618,4.644        c0.057,0.106,0.09,0.227,0.09,0.356c0,0.417-0.366,0.725-0.76,0.75c-0.145,0.008-0.321-0.047-0.457-0.148        c-3.214-2.388-10.43-3.93-18.383-3.93c-8.208,0-15.721,1.68-18.695,4.182C16.156,28.555,15.984,28.615,15.811,28.615z         M38.193,7.006c-11.823,0-21.466,8.689-21.684,19.447c3.733-2.271,10.726-3.695,18.479-3.695        c7.166,0,13.812,1.25,17.702,3.259c-0.206-1.137-0.31-2.286-0.31-3.431c0-3.055,0.707-6.025,2.102-8.835        C50.353,9.458,44.448,7.006,38.193,7.006z" fill="#093260"/></g></g><g><path d="M59.439,21.709c-3.049,0-5.53-2.478-5.53-5.523c0-3.052,2.481-5.535,5.53-5.535       c3.047,0,5.525,2.483,5.525,5.535C64.965,19.231,62.486,21.709,59.439,21.709z M59.439,12.15c-2.222,0-4.03,1.81-4.03,4.035       c0,2.219,1.808,4.023,4.03,4.023c2.22,0,4.025-1.805,4.025-4.023C63.465,13.96,61.659,12.15,59.439,12.15z" fill="#093260"/></g></g></g><g><circle cx="26.861" cy="36.69" fill="#093260" r="1.292"/><circle cx="43.111" cy="36.69" fill="#093260" r="1.292"/></g><g><path d="M40.443,41.336c0,1.508-1.221,2.729-2.728,2.729h-5.458c-1.508,0-2.729-1.221-2.729-2.729l0,0     c0-1.508,1.221-2.729,2.729-2.729h5.458C39.223,38.607,40.443,39.828,40.443,41.336L40.443,41.336z" fill="#FCE5E0"/></g><g><path d="M37.716,38.607h-5.458c-1.008,0-1.878,0.551-2.351,1.363c0.473,0.812,1.343,1.365,2.351,1.365h5.458     c1.007,0,1.877-0.553,2.35-1.365C39.593,39.158,38.723,38.607,37.716,38.607z" fill="#FFF6F5"/></g><g><path d="M37.716,44.814h-5.458c-1.918,0-3.479-1.561-3.479-3.479s1.561-3.479,3.479-3.479h5.458     c1.917,0,3.478,1.561,3.478,3.479S39.633,44.814,37.716,44.814z M32.258,39.357c-1.091,0-1.979,0.888-1.979,1.979     s0.888,1.979,1.979,1.979h5.458c1.09,0,1.978-0.888,1.978-1.979s-0.887-1.979-1.978-1.979H32.258z" fill="#093260"/></g><g><path d="M27.82,46.91v4.221c0,1.758,1.426,3.184,3.186,3.184h7.961c1.76,0,3.186-1.426,3.186-3.184V46.91H27.82z" fill="#BC2A54"/></g><g><rect fill="#FFFFFF" height="3.062" width="14.277" x="27.848" y="47.189"/></g><g><path d="M42.125,51.002H27.848c-0.414,0-0.75-0.336-0.75-0.75V46.91c0-0.414,0.336-0.75,0.75-0.75h14.277     c0.414,0,0.75,0.336,0.75,0.75v3.342C42.875,50.666,42.539,51.002,42.125,51.002z M28.598,49.502h12.777V47.66H28.598V49.502z" fill="#093260"/></g><g><path d="M38.967,55.064h-7.961c-2.17,0-3.936-1.765-3.936-3.934V46.91c0-0.414,0.336-0.75,0.75-0.75h14.332     c0.414,0,0.75,0.336,0.75,0.75v4.221C42.902,53.3,41.137,55.064,38.967,55.064z M28.57,47.66v3.471     c0,1.342,1.093,2.434,2.436,2.434h7.961c1.343,0,2.436-1.092,2.436-2.434V47.66H28.57z" fill="#093260"/></g></g></g></svg>