<?xml version="1.0" encoding="UTF-8" standalone="no"?>
<svg id="svg2" xmlns="http://www.w3.org/2000/svg" height="16" width="16" xmlns:cc="http://creativecommons.org/ns#" xmlns:dc="http://purl.org/dc/elements/1.1/">
 <circle id="circle6" style="stroke:#888888;fill:#c0c0c0;" cx="8" cy="8" r="7.5"/>
 <g id="g3122">
  <path id="path2816" d="m10.06,10.551,0,1.4019-5.2905,0c0.05729-0.52995,0.22917-1.0321,0.51562-1.5066,0.28646-0.47444,0.85221-1.1038,1.6973-1.8879,0.68034-0.63379,1.0975-1.0635,1.2515-1.2891,0.20768-0.31152,0.31152-0.61946,0.31152-0.92383-0.000004-0.33658-0.09042-0.59529-0.27124-0.77612-0.18083-0.18082-0.43059-0.27123-0.74927-0.27124-0.31511,0.0000067-0.56576,0.094896-0.75195,0.28467-0.1862,0.18978-0.29362,0.50489-0.32226,0.94531l-1.5037-0.15c0.08952-0.83072,0.3706-1.4269,0.84326-1.7886,0.47266-0.36165,1.0635-0.54247,1.7725-0.54248,0.77701,0.0000079,1.3875,0.20948,1.8315,0.62842,0.444,0.41895,0.66601,0.93995,0.66602,1.563-0.000006,0.3545-0.06356,0.69198-0.19067,1.0125-0.12712,0.32048-0.32854,0.65617-0.60425,1.0071-0.18262,0.23275-0.51205,0.56755-0.98828,1.0044-0.47624,0.43685-0.77792,0.72689-0.90503,0.87012-0.12712,0.14323-0.23006,0.28288-0.30884,0.41895z"/>
  <path id="path2996" style="fill:#000000;" d="m11.459,11.951,0-1.5093,1.5093,0,0,1.5093z"/>
 </g>
</svg>